Patient4_TMGait_0pt6_01_left_05_GRF.mot
version=1
nRows=78
nColumns=19
inDegrees=no
endheader
time	F1x	F1y	F1z	M1x	M1y	M1z	F2x	F2y	F2z	M2x	M2y	M2z	EC1x	EC1y	EC1z	EC2x	EC2y	EC2z
6.05	-4.0825	1.0198	-6.0423	1.5429	0.91967	-5.2001	-36.9021	780.5374	-53.4335	306.1563	63.0976	685.9121	-0.0592	0.0182	-0.0073	-0.0462	0.0165	0.9585
6.0624	-2.9735	1.2673	-4.1053	0.81183	0.5221	-2.8537	-34.4636	787.9133	-49.5629	307.7487	57.5766	688.4491	-0.0592	0.0182	-0.0073	-0.0462	0.0165	0.9585
6.0747	-2.0049	1.4669	-2.4621	0.18589	0.21909	-0.91463	-31.7769	794.7503	-46.4148	309.2267	52.6674	690.0531	-0.0592	0.0182	-0.0073	-0.0462	0.0165	0.9585
6.0871	-1.2491	1.6094	-1.2054	-0.29675	0.004967	0.52464	-28.897	800.0142	-44.2353	310.2491	48.6688	689.9893	-0.0592	0.0182	-0.0073	-0.0462	0.0165	0.9585
6.0994	-0.73101	1.7106	-0.33728	-0.63588	-0.13318	1.5068	-25.8388	802.9089	-43.0372	310.5139	45.6062	687.7175	-0.0592	0.0182	-0.0073	-0.0462	0.0165	0.9585
6.1118	-0.41831	1.7674	0.20131	-0.84482	-0.21602	2.0891	-22.6187	802.9982	-42.6735	309.8326	43.3412	682.9844	-0.0592	0.0182	-0.0073	-0.0462	0.0165	0.9585
6.1241	-0.2864	1.7852	0.48265	-0.94723	-0.26496	2.3648	-19.2454	800.203	-42.9455	308.1492	41.6807	675.8117	-0.0592	0.0182	-0.0073	-0.0462	0.0165	0.9585
6.1365	-0.27619	1.753	0.59417	-0.96171	-0.30554	2.3906	-15.7517	794.7501	-43.6248	305.5308	40.4124	666.4677	-0.0592	0.0182	-0.0073	-0.0462	0.0165	0.9585
6.1489	-0.3623	1.6543	0.60683	-0.90404	-0.36005	2.2426	-12.1787	787.0852	-44.5127	302.1371	39.3575	655.3721	-0.0592	0.0182	-0.0073	-0.0462	0.0165	0.9585
6.1612	-0.49994	1.4336	0.58552	-0.77485	-0.44498	1.9253	-8.5853	777.835	-45.4226	298.2025	38.3558	643.0753	-0.0592	0.0182	-0.0073	-0.0462	0.0165	0.9585
6.1736	-0.67708	1.0419	0.56854	-0.56765	-0.56589	1.4402	-5.0281	767.6841	-46.2204	293.9896	37.3007	630.156	-0.0592	0.0182	-0.0073	-0.0462	0.0165	0.9585
6.1859	-0.85793	0.40914	0.58963	-0.26869	-0.72505	0.73645	-1.5725	757.3375	-46.8116	289.7687	36.1365	617.1994	-0.0592	0.0182	-0.0073	-0.0462	0.0165	0.9585
6.1983	-1.0189	-0.50531	0.65402	0.13035	-0.9066	-0.21067	1.7277	747.5002	-47.1572	285.8055	34.8518	604.778	-0.0592	0.0182	-0.0073	-0.0462	0.0165	0.9585
6.2106	-1.1025	-1.6994	0.75401	0.62792	-1.0783	-1.3966	4.842	738.8594	-47.2832	282.3591	33.476	593.4312	-0.0592	0.0182	-0.0073	-0.0462	0.0165	0.9585
6.223	-1.0264	-3.0915	0.84629	1.1941	-1.1677	-2.7449	7.759	732.085	-47.2519	279.6789	32.0532	583.6683	-0.0592	0.0182	-0.0073	-0.0462	0.0165	0.9585
6.2354	-0.68553	-4.492	0.87106	1.7543	-1.0773	-4.0837	10.4973	727.7695	-47.1606	277.981	30.6432	575.9193	-0.0592	0.0182	-0.0073	-0.0462	0.0165	0.9585
6.2477	0.054593	-5.5529	0.72797	2.1654	-0.65981	-5.0982	13.0845	726.3026	-47.1017	277.4005	29.2957	570.4579	-0.0592	0.0182	-0.0073	-0.0462	0.0165	0.9585
6.2601	1.3191	-5.7009	0.29781	2.1968	0.25017	-5.2379	15.5877	727.6947	-47.1714	277.9262	28.0564	567.2634	-0.0592	0.0182	-0.0073	-0.0462	0.0165	0.9585
6.2724	3.2308	-4.1174	-0.57332	1.5164	1.8494	-3.7319	18.1093	731.5188	-47.4197	279.3782	26.9218	565.9791	-0.0592	0.0182	-0.0073	-0.0462	0.0165	0.9585
6.2848	5.8237	0.29001	-2.0391	-0.31519	4.2999	0.47752	20.7895	736.9383	-47.8631	281.4234	25.8533	565.9226	-0.0592	0.0182	-0.0073	-0.0462	0.0165	0.9585
6.2971	9.0257	8.811	-4.2453	-3.8188	7.7033	8.6143	23.7406	742.8205	-48.4292	283.6198	24.7581	566.2145	-0.0592	0.0182	-0.0073	-0.0462	0.0165	0.9585
6.3095	12.5017	22.7634	-7.2404	-9.5236	11.9649	21.9607	27.0172	747.8003	-48.9952	285.4454	23.5376	565.8297	-0.0592	0.0182	-0.0073	-0.0462	0.0165	0.9585
6.3219	15.6049	43.1481	-10.908	-17.8361	16.7043	41.4973	30.5984	750.4097	-49.3636	286.3465	22.0677	563.7019	-0.0592	0.0182	-0.0073	-0.0462	0.0165	0.9585
6.3342	17.2797	70.2531	-14.8648	-28.867	21.1309	67.5761	34.3928	749.1974	-49.3122	285.7795	20.2381	558.815	-0.0592	0.0182	-0.0073	-0.0462	0.0165	0.9585
6.3466	16.3638	103.2562	-18.4796	-42.2682	24.1736	99.4739	38.2479	742.8306	-48.6171	283.2487	17.9638	550.2704	-0.0592	0.0182	-0.0073	-0.0462	0.0165	0.9585
6.3589	12.4411	140.2042	-20.8628	-57.2031	24.8042	135.3709	41.9578	730.1846	-47.0977	278.3375	15.2153	537.3507	-0.0592	0.0182	-0.0073	-0.0462	0.0165	0.9585
6.3713	6.4802	177.9441	-20.9033	-72.3275	22.3297	172.2061	45.3068	710.441	-44.6391	270.7466	12.015	519.5672	-0.0592	0.0182	-0.0073	-0.0462	0.0165	0.9585
6.3836	-0.0030181	212.9307	-17.8716	-86.1846	16.6755	206.3435	48.0854	683.1562	-41.2412	260.3173	8.4665	496.6936	-0.0592	0.0182	-0.0073	-0.0462	0.0165	0.9585
6.396	-5.9565	243.5798	-12.3405	-98.1577	8.8721	236.016	50.1211	648.3681	-37.0176	247.0688	4.7303	468.8334	-0.0592	0.0182	-0.0073	-0.0462	0.0165	0.9585
6.4084	-10.9229	270.7254	-5.2979	-108.6365	0.10248	261.8615	51.2825	606.6721	-32.1937	231.2236	1.014	436.4785	-0.0592	0.0182	-0.0073	-0.0462	0.0165	0.9585
6.4207	-14.8227	296.6515	2.1445	-118.6054	-8.5132	285.998	51.4842	559.1561	-27.0368	213.1877	-2.4775	400.4457	-0.0592	0.0182	-0.0073	-0.0462	0.0165	0.9585
6.4331	-17.8125	323.894	9.0418	-129.1478	-16.1314	310.8069	50.6477	507.233	-21.7822	193.4909	-5.5715	361.7749	-0.0592	0.0182	-0.0073	-0.0462	0.0165	0.9585
6.4454	-20.0498	354.5692	14.6938	-141.1567	-22.1626	338.2313	48.7366	452.4913	-16.6271	172.7291	-8.1399	321.6047	-0.0592	0.0182	-0.0073	-0.0462	0.0165	0.9585
6.4578	-21.6523	390.0084	18.8359	-155.1747	-26.423	369.4917	45.7642	396.5746	-11.7547	151.5182	-10.0896	281.0764	-0.0592	0.0182	-0.0073	-0.0462	0.0165	0.9585
6.4701	-22.7251	430.6771	21.5744	-171.3631	-29.0761	405.0378	41.8192	341.1103	-7.361	130.4639	-11.3491	241.2823	-0.0592	0.0182	-0.0073	-0.0462	0.0165	0.9585
6.4825	-23.3777	476.1044	23.4048	-189.4722	-30.6487	444.4861	37.0744	287.6193	-3.6293	110.1336	-11.8842	203.2091	-0.0592	0.0182	-0.0073	-0.0462	0.0165	0.9585
6.4949	-23.7453	524.7898	24.9949	-208.8382	-31.836	486.5178	31.7575	237.4126	-0.70854	91.0199	-11.6938	167.6896	-0.0592	0.0182	-0.0073	-0.0462	0.0165	0.9585
6.5072	-24.0042	574.5963	26.9517	-228.5572	-33.2885	529.2453	26.1568	191.5576	1.3429	73.528	-10.8497	135.3788	-0.0592	0.0182	-0.0073	-0.0462	0.0165	0.9585
6.5196	-24.2918	623.365	29.5847	-247.7409	-35.3618	570.7407	20.5807	150.8524	2.5665	57.9649	-9.4921	106.7598	-0.0592	0.0182	-0.0073	-0.0462	0.0165	0.9585
6.5319	-24.6621	669.3686	32.8035	-265.7054	-38.0023	609.4638	15.3349	115.7497	3.103	44.514	-7.8217	82.0894	-0.0592	0.0182	-0.0073	-0.0462	0.0165	0.9585
6.5443	-25.0523	711.3697	36.2823	-281.9844	-40.8942	644.3105	10.6409	86.3208	3.1312	33.2144	-6.0318	61.3962	-0.0592	0.0182	-0.0073	-0.0462	0.0165	0.9585
6.5566	-25.3389	748.3994	39.6346	-296.224	-43.6379	674.4284	6.6477	62.2586	2.8391	23.9634	-4.3008	44.4535	-0.0592	0.0182	-0.0073	-0.0462	0.0165	0.9585
6.569	-25.3834	779.5563	42.6481	-308.0903	-45.9864	699.0489	3.4119	43.0291	2.3713	16.566	-2.745	30.8969	-0.0592	0.0182	-0.0073	-0.0462	0.0165	0.9585
6.5814	-25.0995	804.0007	45.2337	-317.2671	-47.822	717.4949	0.95923	28.025	1.8402	10.7945	-1.449	20.3097	-0.0592	0.0182	-0.0073	-0.0462	0.0165	0.9585
6.5937	-24.4377	821.0524	47.4057	-323.4989	-49.1395	729.25	-0.70937	16.6826	1.3121	6.434	-0.45573	12.3039	-0.0592	0.0182	-0.0073	-0.0462	0.0165	0.9585
6.6061	-23.3919	830.3729	49.1443	-326.663	-49.921	734.1078	-1.6301	8.5283	0.83789	3.302	0.21296	6.5477	-0.0592	0.0182	-0.0073	-0.0462	0.0165	0.9585
6.6184	-21.9803	832.0518	50.4353	-326.8022	-50.1681	732.2492	-1.9493	3.1259	0.44745	1.2284	0.59248	2.7249	-0.0592	0.0182	-0.0073	-0.0462	0.0165	0.9585
6.6308	-20.2627	826.6842	51.2344	-324.1579	-49.8723	724.2955	-1.9166	-0.035248	0.17343	0.015745	0.74882	0.47994	-0.0592	0.0182	-0.0073	-0.0462	0.0165	0.9585
6.6431	-18.325	815.3855	51.5649	-319.1699	-49.0937	711.2948	-1.6963	-1.5552	-0.016708	-0.5654	0.77774	-0.6175	-0.0592	0.0182	-0.0073	-0.0462	0.0165	0.9585
6.6555	-16.2604	799.7062	51.4747	-312.4494	-47.907	694.6444	-1.421	-1.9737	-0.1263	-0.72385	0.72899	-0.93316	-0.0592	0.0182	-0.0073	-0.0462	0.0165	0.9585
6.6679	-14.1718	781.4467	51.0995	-304.7025	-46.472	675.9359	-1.1464	-1.7415	-0.18571	-0.63244	0.65238	-0.78552	-0.0592	0.0182	-0.0073	-0.0462	0.0165	0.9585
6.6802	-12.1524	762.431	50.5959	-296.644	-44.9604	656.7348	-0.91374	-1.1705	-0.20472	-0.41348	0.56642	-0.37519	-0.0592	0.0182	-0.0073	-0.0462	0.0165	0.9585
6.6926	-10.2661	744.3278	50.1106	-288.9305	-43.5233	638.4251	-0.72503	-0.49242	-0.20014	-0.15552	0.48189	0.12547	-0.0592	0.0182	-0.0073	-0.0462	0.0165	0.9585
6.7049	-8.53	728.5231	49.7075	-282.1128	-42.2222	622.1111	-0.58898	0.15949	-0.18018	0.090307	0.4071	0.62263	-0.0592	0.0182	-0.0073	-0.0462	0.0165	0.9585
6.7173	-6.9272	715.9929	49.3983	-276.5883	-41.0627	608.5272	-0.49224	0.71543	-0.15393	0.29791	0.34498	1.0611	-0.0592	0.0182	-0.0073	-0.0462	0.0165	0.9585
6.7296	-5.4175	707.2447	49.1502	-272.5742	-40.0001	598.0172	-0.43744	1.1566	-0.12828	0.46135	0.29733	1.428	-0.0592	0.0182	-0.0073	-0.0462	0.0165	0.9585
6.742	-3.9389	702.3375	48.9337	-270.1106	-38.9894	590.5591	-0.41453	1.4864	-0.10673	0.58379	0.26309	1.7148	-0.0592	0.0182	-0.0073	-0.0462	0.0165	0.9585
6.7544	-2.4236	700.9617	48.7192	-269.0872	-37.9808	585.8363	-0.41544	1.7286	-0.091246	0.67519	0.24534	1.9346	-0.0592	0.0182	-0.0073	-0.0462	0.0165	0.9585
6.7667	-0.78569	702.5643	48.4909	-269.2883	-36.9256	583.3405	-0.44252	1.9024	-0.079752	0.74338	0.24619	2.1047	-0.0592	0.0182	-0.0073	-0.0462	0.0165	0.9585
6.7791	1.046	706.4822	48.2334	-270.4452	-35.779	582.5011	-0.48904	2.0181	-0.079298	0.79272	0.27124	2.227	-0.0592	0.0182	-0.0073	-0.0462	0.0165	0.9585
6.7914	3.1392	712.0238	47.9398	-272.2704	-34.5058	582.7461	-0.56215	2.0685	-0.087755	0.81952	0.3161	2.285	-0.0592	0.0182	-0.0073	-0.0462	0.0165	0.9585
6.8038	5.5512	718.5669	47.6243	-274.4957	-33.0894	583.5875	-0.65712	2.0179	-0.11106	0.80971	0.38027	2.2299	-0.0592	0.0182	-0.0073	-0.0462	0.0165	0.9585
6.8161	8.3215	725.5952	47.3162	-276.8925	-31.5328	584.6353	-0.78024	1.8171	-0.15117	0.74211	0.46487	2.0159	-0.0592	0.0182	-0.0073	-0.0462	0.0165	0.9585
6.8285	11.4617	732.7041	47.0599	-279.2728	-29.8658	585.5998	-0.9218	1.3893	-0.21091	0.58416	0.56843	1.5641	-0.0592	0.0182	-0.0073	-0.0462	0.0165	0.9585
6.8409	14.9395	739.5896	46.8971	-281.4848	-28.1331	586.2766	-1.0838	0.66123	-0.28897	0.30138	0.68856	0.80784	-0.0592	0.0182	-0.0073	-0.0462	0.0165	0.9585
6.8532	18.7046	746.0087	46.876	-283.4051	-26.3894	586.5096	-1.2362	-0.45462	-0.37785	-0.14513	0.81097	-0.34828	-0.0592	0.0182	-0.0073	-0.0462	0.0165	0.9585
6.8656	22.681	751.7663	47.0457	-284.9365	-24.6953	586.1793	-1.3463	-2.0165	-0.46418	-0.7832	0.91302	-1.9614	-0.0592	0.0182	-0.0073	-0.0462	0.0165	0.9585
6.8779	26.8074	756.7213	47.4556	-286.0151	-23.108	585.1817	-1.3438	-4.0362	-0.53306	-1.6179	0.95753	-4.0398	-0.0592	0.0182	-0.0073	-0.0462	0.0165	0.9585
6.8903	31.0058	760.8086	48.1184	-286.629	-21.6604	583.4821	-1.1388	-6.3913	-0.56557	-2.5985	0.89168	-6.4458	-0.0592	0.0182	-0.0073	-0.0462	0.0165	0.9585
6.9026	35.1904	764.0339	49.0055	-286.8154	-20.3647	581.1019	-0.604	-8.7722	-0.54144	-3.5929	0.64143	-8.8708	-0.0592	0.0182	-0.0073	-0.0462	0.0165	0.9585
6.915	39.2687	766.4211	50.0535	-286.6342	-19.2166	578.0963	0.39819	-10.5765	-0.42893	-4.3484	0.11499	-10.7086	-0.0592	0.0182	-0.0073	-0.0462	0.0165	0.9585
6.9274	43.1837	767.9609	51.1857	-286.142	-18.1955	574.4949	2.0109	-10.8388	-0.19026	-4.4599	-0.78398	-10.9997	-0.0592	0.0182	-0.0073	-0.0462	0.0165	0.9585
6.9397	46.9068	768.5654	52.3241	-285.3615	-17.267	570.2762	4.3335	-8.1701	0.21893	-3.3446	-2.1374	-8.3598	-0.0592	0.0182	-0.0073	-0.0462	0.0165	0.9585
6.9521	50.4709	767.9791	53.3804	-284.2441	-16.3691	565.2845	7.3722	-0.76005	0.83578	-0.2417	-3.9756	-0.98206	-0.0592	0.0182	-0.0073	-0.0462	0.0165	0.9585
6.9644	53.9322	765.7292	54.2298	-282.6446	-15.4032	559.2139	10.9475	13.5268	1.6785	5.7414	-6.2321	13.2502	-0.0592	0.0182	-0.0073	-0.0462	0.0165	0.9585
6.9768	57.3671	761.0696	54.7132	-280.3015	-14.2381	551.5555	14.58	36.8545	2.725	15.5069	-8.6796	36.4829	-0.0592	0.0182	-0.0073	-0.0462	0.0165	0.9585
6.9891	60.7992	752.9753	54.6649	-276.8334	-12.7558	541.6296	17.3725	70.8841	3.8758	29.7449	-10.8449	70.3645	-0.0592	0.0182	-0.0073	-0.0462	0.0165	0.9585
7.0015	64.1665	740.1499	53.9134	-271.7517	-10.8645	528.579	17.9392	115.9811	4.9167	48.5984	-11.9484	115.2761	-0.0592	0.0182	-0.0073	-0.0462	0.0165	0.9585
